<svg width="272" height="59" viewBox="0 0 272 59" fill="none" xmlns="http://www.w3.org/2000/svg">
<path d="M0.995098 55.5978V8.79775C0.995098 6.77108 1.68843 5.11775 3.0751 3.83775C4.46176 2.50441 6.08843 1.83775 7.9551 1.83775H40.5951C41.1818 1.83775 41.6618 2.05108 42.0351 2.47775C42.4618 2.85108 42.6751 3.33108 42.6751 3.91775V11.8378C42.6751 12.4244 42.4884 12.8777 42.1151 13.1977C41.7418 13.5711 41.2351 13.7578 40.5951 13.7578H11.0751C12.3551 13.7578 13.3951 14.2111 14.1951 15.1177C15.0484 16.0244 15.4751 17.0111 15.4751 18.0777V21.4377C15.4751 22.0244 15.6618 22.5844 16.0351 23.1177C16.4618 23.6511 17.0751 23.9178 17.8751 23.9178H35.3151C35.9018 23.9178 36.3818 24.1311 36.7551 24.5577C37.1818 24.9311 37.3951 25.4111 37.3951 25.9978V33.1978C37.3951 33.7844 37.1818 34.2911 36.7551 34.7178C36.3818 35.0911 35.9018 35.2778 35.3151 35.2778H11.0751C12.3018 35.2778 13.3418 35.7044 14.1951 36.5578C15.0484 37.4111 15.4751 38.3711 15.4751 39.4378V43.1978C15.4751 43.7844 15.6884 44.3444 16.1151 44.8778C16.5418 45.4111 17.1284 45.6778 17.8751 45.6778H41.2351C42.6218 45.6778 43.3151 46.3711 43.3151 47.7578V55.5978C43.3151 56.2378 43.1018 56.7444 42.6751 57.1178C42.3018 57.4378 41.8218 57.5978 41.2351 57.5978H2.9951C2.46176 57.5978 1.98176 57.4111 1.5551 57.0378C1.18176 56.6111 0.995098 56.1311 0.995098 55.5978ZM79.2945 28.3978C79.7745 28.7711 80.0145 29.3044 80.0145 29.9978V37.5177C80.0145 38.1578 79.7745 38.6911 79.2945 39.1178C78.9211 39.5444 78.3611 39.7578 77.6145 39.7578H53.0545C52.3611 39.7578 51.8278 39.5444 51.4545 39.1178C50.9745 38.6378 50.7345 38.1044 50.7345 37.5177V35.3578C50.7345 34.3444 50.9745 33.3844 51.4545 32.4778C51.9345 31.5177 52.5478 30.6911 53.2945 29.9978C54.0945 29.3044 54.9745 28.7711 55.9345 28.3978C56.8945 27.9711 57.8811 27.7577 58.8945 27.7577H77.6145C78.3611 27.7577 78.9211 27.9711 79.2945 28.3978ZM89.587 55.5978V8.79775C89.587 6.77108 90.2803 5.11775 91.667 3.83775C93.0536 2.50441 94.6803 1.83775 96.547 1.83775H102.947C103.587 1.83775 104.067 2.02441 104.387 2.39775C104.76 2.77108 104.947 3.25108 104.947 3.83775V55.5978C104.947 56.1311 104.76 56.5844 104.387 56.9578C104.067 57.3844 103.587 57.5978 102.947 57.5978H91.587C91.0536 57.5978 90.5736 57.4111 90.147 57.0378C89.7736 56.6111 89.587 56.1311 89.587 55.5978ZM115.995 55.5178V8.71775C115.995 6.85108 116.662 5.22442 117.995 3.83775C119.328 2.45108 120.982 1.75775 122.955 1.75775H125.595C126.182 1.75775 126.875 1.89108 127.675 2.15775C128.475 2.37108 129.302 3.06441 130.155 4.23775C133.302 9.14442 136.128 13.5711 138.635 17.5177C140.182 19.9177 141.382 21.8377 142.235 23.2777C143.142 24.6644 143.995 25.9711 144.795 27.1977C145.595 28.3711 146.262 29.3844 146.795 30.2378C147.328 31.0911 147.648 31.5978 147.755 31.7578C147.755 31.8644 147.862 31.9178 148.075 31.9178C148.342 31.9178 148.475 31.7844 148.475 31.5178V8.71775C148.475 6.63775 149.195 4.95775 150.635 3.67775C152.075 2.39775 153.702 1.75775 155.515 1.75775H160.635C161.222 1.75775 161.702 1.94442 162.075 2.31775C162.448 2.79775 162.635 3.30442 162.635 3.83775V55.4378C162.635 55.9178 162.448 56.3978 162.075 56.8778C161.648 57.3044 161.168 57.5178 160.635 57.5178H151.595C150.422 57.5178 149.515 57.0111 148.875 55.9978C145.675 51.0911 142.795 46.6911 140.235 42.7978C138.688 40.4511 137.462 38.5844 136.555 37.1978C135.648 35.7578 134.795 34.4511 133.995 33.2777C133.195 32.0511 132.528 31.0377 131.995 30.2378C131.462 29.3844 131.142 28.8778 131.035 28.7178C130.875 28.5577 130.742 28.4777 130.635 28.4777C130.368 28.4777 130.235 28.6111 130.235 28.8777V55.5178C130.235 56.1044 130.022 56.5844 129.595 56.9578C129.168 57.3311 128.688 57.5178 128.155 57.5178H117.995C117.515 57.5178 117.062 57.3044 116.635 56.8778C116.208 56.4511 115.995 55.9978 115.995 55.5178ZM173.731 55.5178V8.71775C173.731 7.70442 173.918 6.77108 174.291 5.91775C174.718 5.06442 175.251 4.34442 175.891 3.75775C176.531 3.11775 177.278 2.63775 178.131 2.31775C178.985 1.94442 179.838 1.75775 180.691 1.75775H212.771C213.305 1.75775 213.785 1.97108 214.211 2.39775C214.638 2.82442 214.851 3.30442 214.851 3.83775V12.3177C214.851 12.9044 214.638 13.3577 214.211 13.6778C213.838 14.0511 213.358 14.2377 212.771 14.2377H183.971C185.145 14.2377 186.158 14.6644 187.011 15.5178C187.918 16.3711 188.371 17.3844 188.371 18.5578V25.3577H207.571C208.958 25.3577 209.651 26.0511 209.651 27.4378V35.8377C209.651 36.4777 209.465 36.9844 209.091 37.3577C208.718 37.6778 208.211 37.8378 207.571 37.8378H183.971C185.038 37.8378 186.025 38.2378 186.931 39.0378C187.891 39.8378 188.371 40.8511 188.371 42.0778V55.5178C188.371 56.1044 188.185 56.5844 187.811 56.9578C187.491 57.3311 187.011 57.5178 186.371 57.5178H175.731C175.145 57.5178 174.665 57.3311 174.291 56.9578C173.918 56.5844 173.731 56.1044 173.731 55.5178ZM246.068 58.5578C238.495 58.5578 232.522 56.7178 228.148 53.0378C223.775 49.3578 221.455 43.9444 221.188 36.7977C221.135 35.3044 221.108 33.0111 221.108 29.9177C221.108 26.8244 221.135 24.5044 221.188 22.9577C221.402 15.9177 223.722 10.5044 228.148 6.71775C232.628 2.87775 238.602 0.957748 246.068 0.957748C253.482 0.957748 259.402 2.87775 263.828 6.71775C268.308 10.5044 270.655 15.9177 270.868 22.9577C270.975 26.0511 271.028 28.3711 271.028 29.9177C271.028 31.5177 270.975 33.8111 270.868 36.7977C270.602 43.9444 268.282 49.3578 263.908 53.0378C259.588 56.7178 253.642 58.5578 246.068 58.5578ZM246.068 46.5578C248.842 46.5578 251.055 45.7311 252.708 44.0778C254.362 42.3711 255.242 39.7844 255.348 36.3178C255.455 33.2244 255.508 31.0111 255.508 29.6778C255.508 28.3444 255.455 26.1844 255.348 23.1978C255.242 19.7311 254.362 17.1711 252.708 15.5178C251.055 13.8111 248.842 12.9578 246.068 12.9578C243.242 12.9578 241.002 13.8111 239.348 15.5178C237.695 17.1711 236.815 19.7311 236.708 23.1978C236.655 24.6911 236.628 26.8511 236.628 29.6778C236.628 32.5578 236.655 34.7711 236.708 36.3178C236.815 39.7844 237.695 42.3711 239.348 44.0778C241.002 45.7311 243.242 46.5578 246.068 46.5578Z" fill="url(#paint0_linear_20_5)"/>
<defs>
<linearGradient id="paint0_linear_20_5" x1="-22.4906" y1="25.0421" x2="302.49" y2="28.613" gradientUnits="userSpaceOnUse">
<stop stop-color="white"/>
<stop offset="1" stop-color="white"/>
</linearGradient>
</defs>
</svg>
